# xmcd CD database file
#
# Track frame offsets:
#	150
#	22575
#	64875
#
# Disc length: 1693 seconds
#
# Revision: 4
# Processed by: cddbd v1.5PL3 Copyright (c) Steve Scherf et al.
# Submitted via: CDex 1.50Beta6
#
DISCID=19069b03
DTITLE=Orange Pekoe - Honeysuckle
DYEAR=2002
DGENRE=Samba
TTITLE0=Honeysuckle
TTITLE1=Honeysuckle-Raphael's Samba Tek- (Raphael Sebbag for United Future Organization)
TTITLE2=Honeysuckle (video)
EXTD=YEAR: 2002
EXTT0=
EXTT1=
EXTT2=
PLAYORDER=
